Coordinates
version=1
nRows=11
nColumns=63
inDegrees=yes

Units are S.I. units (second, meters, Newtons, ...)
If the header above contains a line with 'inDegrees', this indicates whether rotational values are in degrees (yes) or radians (no).

endheader
time	pelvis_tilt	pelvis_list	pelvis_rotation	pelvis_tx	pelvis_ty	pelvis_tz	hip_flexion_r	hip_adduction_r	hip_rotation_r	knee_angle_r	knee_angle_r_beta	ankle_angle_r	subtalar_angle_r	mtp_angle_r	hip_flexion_l	hip_adduction_l	hip_rotation_l	knee_angle_l	knee_angle_l_beta	ankle_angle_l	subtalar_angle_l	mtp_angle_l	L5_S1_Flex_Ext	L5_S1_Lat_Bending	L5_S1_axial_rotation	L4_L5_Flex_Ext	L4_L5_Lat_Bending	L4_L5_axial_rotation	L3_L4_Flex_Ext	L3_L4_Lat_Bending	L3_L4_axial_rotation	L2_L3_Flex_Ext	L2_L3_Lat_Bending	L2_L3_axial_rotation	L1_L2_Flex_Ext	L1_L2_Lat_Bending	L1_L2_axial_rotation	L1_T12_Flex_Ext	L1_T12_Lat_Bending	L1_T12_axial_rotation	Abs_r3	Abs_r2	Abs_r1	Abs_t1	Abs_t2	neck_flexion	neck_bending	neck_rotation	arm_flex_r	arm_add_r	arm_rot_r	elbow_flex_r	pro_sup_r	wrist_flex_r	wrist_dev_r	arm_flex_l	arm_add_l	arm_rot_l	elbow_flex_l	pro_sup_l	wrist_flex_l	wrist_dev_l
3.610169	2.597283	0.482712	74.660456	0.122834	0.831324	0.779042	9.927222	-0.617782	0.974991	21.289960	0.371580	23.788868	17.129713	0.000000	-1.851693	0.601360	-12.767857	6.585200	0.114933	16.739152	-15.518278	0.000000	-0.280223	0.040228	0.972021	-0.520402	0.053504	1.032772	-0.460378	0.097811	1.032772	-0.320267	0.097811	0.850518	-0.260215	0.082033	0.789767	-0.160119	0.062314	0.729015	-2.001604	0.455070	5.406087	0.000000	0.000000	3.933111	5.518306	-9.748203	-1.276863	-11.544460	28.258608	34.640128	67.450099	-10.359234	-0.099084	7.396356	-5.507859	133.534570	0.622470	1.238690	-2.655392	-20.311498
3.627119	2.734930	0.283908	75.809912	0.120840	0.830764	0.780833	10.193425	-0.623371	-0.004309	21.364495	0.372881	23.944083	17.032457	0.000000	-1.248446	0.335186	-12.090452	7.055669	0.123145	17.263808	-14.939571	0.000000	-0.267084	0.048798	0.889226	-0.496001	0.064901	0.944803	-0.438792	0.118647	0.944803	-0.305250	0.118647	0.778073	-0.248014	0.099508	0.722496	-0.152612	0.075588	0.666920	-1.907753	0.552009	4.945608	0.000000	0.000000	4.709776	5.529630	-10.010098	-1.872852	-11.852869	26.958599	36.927451	70.066467	-10.419971	0.332122	7.656605	-5.286706	132.740967	0.660158	1.184682	-2.120360	-20.586710
3.644068	2.925570	0.060891	77.134004	0.118397	0.830089	0.782743	10.477362	-0.626457	-1.206029	21.454871	0.374458	24.129656	16.921518	0.000000	-0.564315	0.037508	-11.222347	7.584829	0.132380	17.829680	-14.347319	0.000000	-0.252579	0.064723	0.774872	-0.469064	0.086082	0.823302	-0.414962	0.157368	0.823302	-0.288672	0.157368	0.678013	-0.234545	0.131984	0.629584	-0.144324	0.100257	0.581154	-1.804145	0.732164	4.309607	0.000000	0.000000	5.650517	5.443833	-10.152274	-2.586642	-12.233992	25.585425	39.734700	73.083599	-10.680278	0.513944	8.087812	-4.976901	132.684159	0.682921	1.139367	-1.889186	-20.869811
3.661017	3.164529	-0.166267	78.672536	0.115515	0.829326	0.784751	10.763112	-0.639772	-2.673032	21.575416	0.376562	24.344742	16.800530	0.000000	0.186288	-0.276541	-10.104635	8.164010	0.142489	18.418460	-13.775266	0.000000	-0.237497	0.085816	0.629094	-0.441056	0.114135	0.668412	-0.390184	0.208653	0.668412	-0.271436	0.208653	0.550457	-0.220540	0.174996	0.511139	-0.135706	0.132929	0.471820	-1.696419	0.970767	3.498831	0.000000	0.000000	6.698657	5.301198	-10.205298	-3.403725	-12.650854	24.074463	43.066068	76.442948	-10.918944	0.707793	8.710909	-4.558210	133.641503	0.688438	1.105856	-2.155933	-21.158287
3.677966	3.493565	-0.391889	80.374249	0.112201	0.828542	0.786822	11.010143	-0.610506	-4.349850	21.667055	0.378161	24.519660	16.656550	0.000000	0.982286	-0.642288	-8.773500	8.788696	0.153392	19.014428	-13.235021	0.000000	-0.222608	0.117664	0.464409	-0.413406	0.156493	0.493434	-0.365723	0.286088	0.493434	-0.254419	0.286088	0.406358	-0.206714	0.239940	0.377332	-0.127198	0.182261	0.348307	-1.590070	1.331038	2.582902	0.000000	0.000000	7.808348	4.996982	-10.251479	-4.191371	-13.196591	22.969603	46.900461	79.363602	-10.840213	1.292991	9.481991	-3.973444	135.486509	0.678233	1.127254	-3.127831	-21.523616
3.694915	3.900841	-0.590327	82.246992	0.108460	0.827793	0.788916	11.199667	-0.551601	-6.267186	21.728644	0.379236	24.634685	16.510180	0.000000	1.803155	-1.040612	-7.182953	9.444143	0.164831	19.560487	-12.791599	0.000000	-0.207682	0.159218	0.290832	-0.385687	0.211760	0.309009	-0.341201	0.387122	0.309009	-0.237360	0.387122	0.254478	-0.192854	0.324677	0.236301	-0.118670	0.246628	0.218124	-1.483455	1.801103	1.617520	0.000000	0.000000	8.911436	4.565681	-10.288187	-4.904571	-13.813025	22.020486	51.052299	82.203422	-10.077610	2.404027	10.419852	-3.171883	138.699155	0.650539	1.186433	-4.810877	-21.911700
3.711864	4.402404	-0.745640	84.260996	0.104372	0.827107	0.790960	11.290122	-0.438241	-8.396464	21.726165	0.379193	24.664787	16.395446	0.000000	2.610634	-1.481623	-5.363746	10.108442	0.176426	20.048785	-12.482229	0.000000	-0.194965	0.211057	0.122572	-0.362069	0.280706	0.130233	-0.320308	0.513164	0.130233	-0.222825	0.513164	0.107251	-0.181044	0.430388	0.099590	-0.111403	0.326928	0.091929	-1.392615	2.387521	0.681710	0.000000	0.000000	9.979169	3.974793	-10.517875	-5.475310	-14.514146	21.288909	55.398924	84.731546	-8.448497	4.096627	11.570240	-2.131919	142.851511	0.607547	1.252043	-5.989838	-22.284497
3.728814	4.974705	-0.846355	86.381936	0.100060	0.826500	0.792861	11.271299	-0.278096	-10.696286	21.654967	0.377950	24.606649	16.321675	0.000000	3.382455	-1.944065	-3.349687	10.764943	0.187884	20.449187	-12.319364	0.000000	-0.184500	0.270430	-0.041040	-0.342634	0.359672	-0.043605	-0.303115	0.657524	-0.043605	-0.210865	0.657524	-0.035910	-0.171326	0.551462	-0.033345	-0.105423	0.418897	-0.030780	-1.317863	3.059162	-0.228254	0.000000	0.000000	11.002877	3.288611	-10.851338	-5.788095	-15.249892	20.934708	59.677949	86.916653	-5.883306	6.251331	12.896305	-0.885142	147.590068	0.550768	1.313920	-6.239414	-22.665843
3.745763	5.598418	-0.889874	88.590368	0.095628	0.826001	0.794532	11.136922	-0.074305	-13.133408	21.505823	0.375347	24.450855	16.296550	0.000000	4.102841	-2.411235	-1.168029	11.393372	0.198852	20.738009	-12.303276	0.000000	-0.175454	0.334675	-0.201393	-0.325835	0.445118	-0.213980	-0.288253	0.813730	-0.213980	-0.200526	0.813730	-0.176219	-0.162926	0.682470	-0.163632	-0.100254	0.518412	-0.151045	-1.253247	3.785915	-1.120086	0.000000	0.000000	11.987851	2.566751	-11.268926	-5.772595	-15.992228	20.798311	63.402250	93.421582	1.095619	9.384090	14.359016	0.535133	152.720836	0.482140	1.352029	-5.401949	-23.043181
3.762712	6.255583	-0.879579	90.839694	0.091230	0.825647	0.795816	10.877156	0.172526	-15.646896	21.263812	0.371124	24.199639	16.328975	0.000000	4.744822	-2.876219	1.124354	11.971663	0.208945	20.909508	-12.422740	0.000000	-0.167166	0.401597	-0.350132	-0.310444	0.534124	-0.372015	-0.274637	0.976443	-0.372015	-0.191054	0.976443	-0.306365	-0.155230	0.818937	-0.284482	-0.095519	0.622074	-0.262599	-1.194049	4.542948	-1.947326	0.000000	0.000000	12.920855	1.808700	-11.775325	-5.657623	-16.551891	20.892225	66.958239	96.525006	5.998676	12.664580	15.882372	2.097141	157.743838	0.408569	1.378399	-3.335188	-23.443875
3.779661	6.917531	-0.808823	93.070491	0.087028	0.825467	0.796612	10.487617	0.459117	-18.136875	20.933092	0.365351	23.874429	16.401261	0.000000	5.271373	-3.333964	3.461102	12.469812	0.217639	20.971606	-12.655476	0.000000	-0.159826	0.467594	-0.491243	-0.296814	0.621901	-0.521945	-0.262579	1.136909	-0.521945	-0.182666	1.136909	-0.429837	-0.148415	0.953519	-0.399135	-0.091325	0.724304	-0.368432	-1.141624	5.289522	-2.732145	0.000000	0.000000	13.781854	1.096694	-12.301362	-5.394132	-16.916910	21.308637	70.238829	96.524028	8.902610	15.821590	17.400060	3.741533	162.539732	0.335997	1.392146	-0.264417	-23.920496
